<svg xmlns="http://www.w3.org/2000/svg" width="150" height="42.619" viewBox="0 0 150 42.619"><defs><style>.a{fill:#fff;}</style></defs><path class="a" d="M238.823,481.378q-.522-7.811-1.048-15.621c-.016-.232.1-.544-.206-.656s-.424.217-.594.364q-7.489,6.485-14.956,13c-.242.211-.711.384-.541.769.162.367.625.174.936.144,1.864-.18,3.725-.394,5.586-.606.576-.066.976-.024.654.725q-2.042,4.747-4.072,9.5c-.091.211-.049.545-.393.567-.322.02-.354-.276-.488-.48a21.028,21.028,0,0,1-3.255-14.861,19.385,19.385,0,0,1,2.827-7.832,21.038,21.038,0,0,1,14.089-9.831,20.79,20.79,0,0,1,19.605,6.135,19.277,19.277,0,0,1,4.1,6.053c.09.211.125.566.429.537.353-.034.216-.386.242-.61a6.568,6.568,0,0,1,4.229-5.455,14.994,14.994,0,0,1,11.509.041c.259.1.489.268.746.369.575.224.775.479.386,1.111a26.773,26.773,0,0,0-1.492,2.9c-.288.628-.527.8-1.265.486a5.6,5.6,0,0,0-4.332-.5,1.518,1.518,0,0,0-.941,2.336,13.263,13.263,0,0,0,3.081,3.085,39.15,39.15,0,0,1,4.6,4.635,7.669,7.669,0,0,1,.285,9.522.657.657,0,0,0-.695.369A2.7,2.7,0,0,1,276.8,488.6a13.423,13.423,0,0,1-8.97,2.076,18.67,18.67,0,0,0-3.5-.482,15.33,15.33,0,0,1-3.382-1.516c-.36-.2-.485-.378-.232-.8a38.427,38.427,0,0,0,2.036-3.709c.286-.631.456-.489.823-.176a7.028,7.028,0,0,0,4.529,1.684,4.745,4.745,0,0,0,2.072-.5,2.577,2.577,0,0,0,.849-3.919,16.279,16.279,0,0,0-2.626-2.749c-1.878-1.755-4-3.251-5.565-5.337-.05-.067-.109-.168-.344.011a6.346,6.346,0,0,1,.351,2.363c.606,8.084-2.41,14.518-8.882,19.338a20.7,20.7,0,0,1-7.682,3.469c-.212.05-.449.144-.612-.038s-.042-.406.045-.611q1.674-3.95,3.342-7.9c1.211-2.852,2.434-5.7,3.641-8.551.466-1.1.452-1.093,1.271-.274,1.271,1.271,2.573,2.511,3.861,3.764.132.128.253.314.468.208.2-.1.181-.316.169-.495-.235-3.738-.436-7.477-.782-11.208-.216-2.331-.306-4.674-.466-7.011-.018-.258.124-.64-.212-.731-.154-.042-.413.215-.593.372q-6.79,5.889-13.573,11.786a15.084,15.084,0,0,0-2.146,2.14,14.563,14.563,0,0,0,2.613-.191c1.438-.36,2.925-.167,4.359-.538.785-.2.61.372.433.793q-1.49,3.566-3,7.123c-1.451,3.427-2.935,6.841-4.349,10.284-.75,1.825-.761,1.535-2.258,1.314a21.658,21.658,0,0,1-9.563-3.915c-1.14-.813-1.184-.811-.649-2.075,1.633-3.86,3.293-7.708,4.942-11.561a.655.655,0,0,0,.353-.676l.011-.054.635,0,.019.049.113.142a.1.1,0,0,1,.083.048l.133.132.032.06a.511.511,0,0,0,.535.519l.048.015a.8.8,0,0,0,.706.733l.045.02a5.46,5.46,0,0,0,2.04,2.033l.021.044.142.147.049.022c.1.393.324.754.746.647s.261-.561.251-.882A8.9,8.9,0,0,0,238.823,481.378Z" transform="translate(-220.216 -456.117)"/><path class="a" d="M885.1,516.868c-5.538-.026-9.825-2.323-12.373-7.3a15.29,15.29,0,0,1-.463-13.236,12.641,12.641,0,0,1,8.828-7.713c5.914-1.568,11.369-.056,15.074,4.991a13.538,13.538,0,0,1,2.581,7.152,15.82,15.82,0,0,1-1.487,8.641,12.653,12.653,0,0,1-7.948,6.814A13.006,13.006,0,0,1,885.1,516.868Zm-5.178-14.491a15.541,15.541,0,0,0,.351,4.19,5.97,5.97,0,0,0,1.952,3.529,4.513,4.513,0,0,0,7.136-2.639,19.306,19.306,0,0,0,.264-8.91,6.254,6.254,0,0,0-2.11-3.824c-1.586-1.325-4.971-.843-6.1.9C880.071,497.7,879.9,500.013,879.921,502.377Z" transform="translate(-748.811 -482.04)"/><path class="a" d="M754.933,516.8c-5.034-.053-8.983-.992-12.373-3.713a12.713,12.713,0,0,1-4.736-7.995,14.1,14.1,0,0,1,1.508-9.6,13.919,13.919,0,0,1,6-5.668,18.85,18.85,0,0,1,14.026-1.048c.15.042.293.109.444.149,1.431.384,1.43.383.864,1.7-.429,1-.886,1.988-1.271,3a.846.846,0,0,1-1.142.616,13.913,13.913,0,0,0-3.8-.4c-2.787.184-5.193,1.163-6.745,3.563-2,3.1-2.271,9.128,2.232,12.108a7.516,7.516,0,0,0,3.858,1.265,13.129,13.129,0,0,0,4.831-.337c.7-.237,1.084.017,1.28.731.336,1.227.729,2.438,1.1,3.656.152.5.054.793-.524.953A19.5,19.5,0,0,1,754.933,516.8Z" transform="translate(-640.449 -481.942)"/><path class="a" d="M644.132,490.769c2.5,0,5.005.018,7.507-.009.824-.009,1.216.255,1.159,1.139-.058.9-.008,1.813-.016,2.72-.012,1.362-.041,1.379-1.453,1.376-2,0-4,.039-6.005-.01-.914-.022-1.3.211-1.226,1.213.1,1.4.043,2.813.029,4.22-.013,1.385-.027,1.381,1.4,1.378,2.032,0,4.065.015,6.1-.014.635-.009.9.169.877.849-.045,1.187-.041,2.378.007,3.565.029.711-.262.94-.932.935-2.158-.014-4.318.036-6.475-.011-.805-.018-1,.247-.99,1.023.044,2.783-.016,5.568.03,8.351.015.915-.319,1.213-1.2,1.2-2.033-.036-4.066-.023-6.1.01-.812.013-1.092-.311-1.09-1.118q.03-13,0-25.993c0-.682.247-.842.873-.836C639.127,490.783,641.63,490.768,644.132,490.769Z" transform="translate(-557.741 -484.254)"/><path class="a" d="M570.755,504.579c0,4.285-.019,8.571.017,12.856.007.805-.194,1.1-1.043,1.081-2.063-.053-4.129-.036-6.193.005-.788.016-1.1-.2-1.1-1.056q.038-12.95,0-25.9c0-.78.245-1.045,1.021-1.03,2.033.038,4.067.047,6.1-.006.9-.023,1.242.2,1.229,1.193-.06,4.285-.026,8.57-.026,12.856Z" transform="translate(-498.19 -484.068)"/></svg>